<svg xmlns="http://www.w3.org/2000/svg" width="550mm" height="410mm" viewBox="0 0 550 410">
<g style="display:inline;opacity:1"><path d="M465.238 202.266c-.992-.561 3.008-8.888 9.983-23.701 6.085-12.921 18-37.664 21.007-62.714 3.908-30.146-3.175-59.216-13.729-97.68-2.812-10.095-5.818-20.413-8.814-30.961-2.443-8.6-4.78-17.014-6.964-25.46-4.068-15.469-8.05-30.245-8.127-46.178-.096-4.806.55-10.023 2.793-15.093 1.69-3.764 4.661-6.99 8.615-9.01 8.414-3.48 16.696-1.673 22.679 1.057 18.89 7.562 31.347 22.77 38.028 36.598C548.995-32.88 539.986-6.66 543.092-7.17c-1.612.264-1.255-26.853-19.841-59.828-6.748-12.006-18.356-25.05-34.283-30.664-5.352-1.56-10.98-3.2-14.1-.999-1.32.58-2.476 2.074-3.281 3.787-1.313 2.735-1.51 6.327-1.531 10.35.172 13.952 4.19 27.566 8.274 43.235 2.204 8.319 4.537 16.617 6.974 25.198 3.03 10.662 5.921 20.722 8.727 31.096 10.562 38.455 17.006 70.107 11.859 102.252-4.63 27.385-18.13 51.321-25.732 63.949-8.512 14.14-14.181 21.478-14.92 21.06zM265.638 194.649c-1.39-1.36 35.722-44.267 92.883-101.651 11.8-11.867 26.039-25.334 36.983-39.48 6.616-8.603 12.475-18.252 15.995-28.587 1.263-3.708 2.21-7.46 2.795-11.248 2.699-16.313.292-33.171-3.974-48.386-4.403-14.83-9.53-27.756-18.786-36.554-5.74-5.861-14.711-7.78-22.305-6.524-9.315 1.454-19.501 6.482-27.634 9.949-33.963 14.639-55.893 19.887-56.22 19.052-.57-1.455 20.26-10.062 52.79-26.412 7.7-3.912 18.045-9.608 29.282-12.034 10.247-2.11 22.267.098 31.372 8.253 11.456 10.758 18.1 25.366 22.623 41.013 4.954 16.265 7.674 34.797 4.762 53.549a83.5 83.5 0 0 1-3.318 13.206c-4.065 12.015-10.595 22.807-17.983 32.084-11.961 15.1-26.607 28.553-38.609 40.04-58.281 55.887-98.491 95.85-100.656 93.73zM170.402 204.249c-1.727-.29 7.735-29.617 3.094-73.627-.833-7.86-2.91-16.326-7.283-23.67-4.414-7.62-10.93-14.187-18.685-20.974-9.202-7.974-19.782-15.694-30.24-24.946-8.414-7.144-18.275-16.279-22.775-29.333-1.647-5.359-1.816-10.925-.826-16.169.988-5.238 2.747-10.017 4.66-14.468l.109-.25c4.28-10.212 8.938-18.807 10.46-27.835 1.831-9.715.57-20.006-1.975-29.566-2.426-8.511-5.287-16.196-10.161-21.899-2.368-2.607-5.5-4.579-7.74-3.695-4.37.632-9.005 4.195-14.02 7.3C58.216-63.928 45.89-54.632 36.126-43 14.063-17.067 8.29 5.463 6.89 4.891c1.739.71.814-22.844 23.031-52.808 9.796-13.044 22.635-23.868 39.396-35.458 4.444-3.25 10.061-7.46 17.493-9.333 7.326-1.145 14.156 1.832 18.427 6.995 6.472 7.575 10.323 16.697 12.889 25.988 3.133 10.69 4.628 22.688 2.576 34.799-2.108 11.376-7.004 20.918-11.13 30.466.001-.002-.1.238-.098.236-1.74 4.17-3.252 8.092-3.925 11.926-.637 3.643-.619 7.273.406 10.389 2.49 9.107 11.167 16.723 19.117 24.275 9.482 8.652 20.205 16.826 29.686 25.477 8.066 7.274 15.134 15.044 20.158 24.218 4.932 9.212 6.96 19.032 7.417 27.879 2.435 47.722-14.673 73.85-11.93 74.309z" style="opacity:1;vector-effect:none;fill:#000;fill-opacity:1;stroke:#000;stroke-width:1;stroke-linecap:butt;stroke-linejoin:miter;stroke-miterlimit:4;stroke-dasharray:none;stroke-dashoffset:0;stroke-opacity:1" transform="translate(0 200)"/>
<path d="M344.62 146.343c-1.404 2.057-38.286-21.28-92.14-56.074-18.805-12.117-45.355-27.742-65.918-46.928-4.552-4.204-8.757-9.037-12.301-14.403-6.502-9.842-10.472-20.998-10.772-32.72-.102-19.5 5.854-37.825 12.014-53.083 2.4-6.487 5.479-13.373 11.35-18.863 7.06-5.756 15.684-6.664 22.628-5.56 13.177 1.805 25.62 7.141 34.522 10.951 26.878 11.394 41.795 20.6 41.404 21.499-.768 1.761-16.837-5.043-44.134-14.359-9.12-3.084-21.487-7.588-32.856-8.515-5.446-.273-11.52.259-14.551 3.685-3.7 3.223-5.536 8.714-8.076 15.107-5.43 14.965-10.79 32.104-10.367 48.965-.001 9.03 3.355 17.959 8.903 26.18 3.022 4.478 6.62 8.633 10.486 12.352 18.796 17.864 45.116 34.05 63.579 46.857 52.804 36.551 87.413 63.174 86.229 64.91zM376.814-171.878c-.137-.165 3.1-11.604 19.903-17.527 9.116-3.137 21.643-3.976 33.647 1.754.316.16.629.323.939.492 10.438 5.693 15.871 15.756 17.395 24.687 1.555 9.485.017 18.06-1.241 22.914-1.362 5.243-2.866 8.108-3.962 7.998-2.301-.23-.524-13.648-5.203-28.533-1.93-6.205-6.157-13.19-12.61-16.41a17.3 17.3 0 0 0-.587-.28c-8.389-4.157-18.222-4.231-25.797-2.92-12.547 1.908-21.145 9.431-22.484 7.824zM166.466-189.835c-.09.899-2.005 1.576-5.37 1.996-2.058.278-6.092.599-8.786 1.477-2.804.844-5.703 2.654-8.198 5.46-3.67 4.003-6.148 9.454-8.287 16.352-.59 1.993-1.121 4.05-1.644 6.21-2.154 8.905-3.505 16.203-6.714 24.258-7.524 18.435-18.526 26.3-19.541 25.66-2.008-1.267 4.778-12.804 9.302-29.2 1.898-6.62 3.031-14.65 5.214-23.574a101.2 101.2 0 0 1 1.928-6.895c2.52-8.17 6.739-15.205 12.488-20.313 4.438-3.901 9.587-5.743 14.172-6.066 4.532-.219 8.345.807 10.597 1.592 3.185 1.11 4.929 2.141 4.839 3.043z" style="opacity:1;vector-effect:none;fill:#000;fill-opacity:1;stroke:#000;stroke-width:1;stroke-linecap:butt;stroke-linejoin:miter;stroke-miterlimit:4;stroke-dasharray:none;stroke-dashoffset:0;stroke-opacity:1" transform="translate(0 200)"/>
<path d="M180.746-156.882c-.639-1.735 3.545-4.633 3.053-7.343.573-2.488.471-5.76-.634-8.854a8.994 8.994 0 0 0-.733-1.66c-1.27-2.266-3.623-4.498-5.717-6.28-5.124-4.393-10.879-5.757-10.25-8.816.32-1.55 6.32-4.413 15.564-.495a22.273 22.273 0 0 1 10.877 9.756 22.642 22.642 0 0 1 1.638 3.69c2.192 6.766.356 13.136-2.672 17.126-5.962 7.078-10.943 3.376-11.126 2.876z" style="opacity:1;vector-effect:none;fill:#000;fill-opacity:1;stroke:#000;stroke-width:1;stroke-linecap:butt;stroke-linejoin:miter;stroke-miterlimit:4;stroke-dasharray:none;stroke-dashoffset:0;stroke-opacity:1" transform="translate(0 200)"/>
</g>
</svg>